<svg id="visual" viewBox="0 0 900 600" width="900" height="600" xmlns="http://www.w3.org/2000/svg" xmlns:xlink="http://www.w3.org/1999/xlink" version="1.1"><path d="M0 61L18.8 59C37.7 57 75.3 53 112.8 56C150.3 59 187.7 69 225.2 73C262.7 77 300.3 75 337.8 71C375.3 67 412.7 61 450.2 61C487.7 61 525.3 67 562.8 68C600.3 69 637.7 65 675.2 62C712.7 59 750.3 57 787.8 57C825.3 57 862.7 59 881.3 60L900 61L900 0L881.3 0C862.7 0 825.3 0 787.8 0C750.3 0 712.7 0 675.2 0C637.7 0 600.3 0 562.8 0C525.3 0 487.7 0 450.2 0C412.7 0 375.3 0 337.8 0C300.3 0 262.7 0 225.2 0C187.7 0 150.3 0 112.8 0C75.3 0 37.7 0 18.8 0L0 0Z" fill="#7fb94f"></path><path d="M0 133L18.8 141C37.7 149 75.3 165 112.8 164C150.3 163 187.7 145 225.2 146C262.7 147 300.3 167 337.8 173C375.3 179 412.7 171 450.2 162C487.7 153 525.3 143 562.8 138C600.3 133 637.7 133 675.2 132C712.7 131 750.3 129 787.8 128C825.3 127 862.7 127 881.3 127L900 127L900 59L881.3 58C862.7 57 825.3 55 787.8 55C750.3 55 712.7 57 675.2 60C637.7 63 600.3 67 562.8 66C525.3 65 487.7 59 450.2 59C412.7 59 375.3 65 337.8 69C300.3 73 262.7 75 225.2 71C187.7 67 150.3 57 112.8 54C75.3 51 37.7 55 18.8 57L0 59Z" fill="#6fab48"></path><path d="M0 205L18.8 208C37.7 211 75.3 217 112.8 215C150.3 213 187.7 203 225.2 205C262.7 207 300.3 221 337.8 229C375.3 237 412.7 239 450.2 229C487.7 219 525.3 197 562.8 191C600.3 185 637.7 195 675.2 193C712.7 191 750.3 177 787.8 170C825.3 163 862.7 163 881.3 163L900 163L900 125L881.3 125C862.7 125 825.3 125 787.8 126C750.3 127 712.7 129 675.2 130C637.7 131 600.3 131 562.8 136C525.3 141 487.7 151 450.2 160C412.7 169 375.3 177 337.8 171C300.3 165 262.7 145 225.2 144C187.7 143 150.3 161 112.8 162C75.3 163 37.7 147 18.8 139L0 131Z" fill="#5f9c42"></path><path d="M0 241L18.8 246C37.7 251 75.3 261 112.8 258C150.3 255 187.7 239 225.2 242C262.7 245 300.3 267 337.8 279C375.3 291 412.7 293 450.2 283C487.7 273 525.3 251 562.8 245C600.3 239 637.7 249 675.2 246C712.7 243 750.3 227 787.8 218C825.3 209 862.7 207 881.3 206L900 205L900 161L881.3 161C862.7 161 825.3 161 787.8 168C750.3 175 712.7 189 675.2 191C637.7 193 600.3 183 562.8 189C525.3 195 487.7 217 450.2 227C412.7 237 375.3 235 337.8 227C300.3 219 262.7 205 225.2 203C187.7 201 150.3 211 112.8 213C75.3 215 37.7 209 18.8 206L0 203Z" fill="#508e3b"></path><path d="M0 355L18.8 368C37.7 381 75.3 407 112.8 411C150.3 415 187.7 397 225.2 404C262.7 411 300.3 443 337.8 459C375.3 475 412.7 475 450.2 473C487.7 471 525.3 467 562.8 456C600.3 445 637.7 427 675.2 418C712.7 409 750.3 409 787.8 407C825.3 405 862.7 401 881.3 399L900 397L900 203L881.3 204C862.7 205 825.3 207 787.8 216C750.3 225 712.7 241 675.2 244C637.7 247 600.3 237 562.8 243C525.3 249 487.7 271 450.2 281C412.7 291 375.3 289 337.8 277C300.3 265 262.7 243 225.2 240C187.7 237 150.3 253 112.8 256C75.3 259 37.7 249 18.8 244L0 239Z" fill="#418034"></path><path d="M0 571L18.8 567C37.7 563 75.3 555 112.8 548C150.3 541 187.7 535 225.2 538C262.7 541 300.3 553 337.8 558C375.3 563 412.7 561 450.2 562C487.7 563 525.3 567 562.8 568C600.3 569 637.7 567 675.2 565C712.7 563 750.3 561 787.8 559C825.3 557 862.7 555 881.3 554L900 553L900 395L881.3 397C862.7 399 825.3 403 787.8 405C750.3 407 712.7 407 675.2 416C637.7 425 600.3 443 562.8 454C525.3 465 487.7 469 450.2 471C412.7 473 375.3 473 337.8 457C300.3 441 262.7 409 225.2 402C187.7 395 150.3 413 112.8 409C75.3 405 37.7 379 18.8 366L0 353Z" fill="#33722e"></path><path d="M0 601L18.8 601C37.7 601 75.3 601 112.8 601C150.3 601 187.7 601 225.2 601C262.7 601 300.3 601 337.8 601C375.3 601 412.7 601 450.2 601C487.7 601 525.3 601 562.8 601C600.3 601 637.7 601 675.2 601C712.7 601 750.3 601 787.8 601C825.3 601 862.7 601 881.3 601L900 601L900 551L881.3 552C862.7 553 825.3 555 787.8 557C750.3 559 712.7 561 675.2 563C637.7 565 600.3 567 562.8 566C525.3 565 487.7 561 450.2 560C412.7 559 375.3 561 337.8 556C300.3 551 262.7 539 225.2 536C187.7 533 150.3 539 112.8 546C75.3 553 37.7 561 18.8 565L0 569Z" fill="#256427"></path></svg>